<svg xmlns="http://www.w3.org/2000/svg" viewBox="0 0 964.94 716.9"><defs><style>.cls-1{fill:#231f20;}</style></defs><g id="Layer_2" data-name="Layer 2"><g id="Layer_1-2" data-name="Layer 1"><path class="cls-1" d="M593.67,270.38h-5.28V255.49a26.07,26.07,0,0,0-26-26.07H370A26.1,26.1,0,0,0,344,255.49v14.89h-5.28a22.47,22.47,0,0,0-22.42,22.43v36.24h20.21L368.07,716.9H564.28l31.61-387.85H616.1V292.81A22.47,22.47,0,0,0,593.67,270.38ZM360.25,255.49a9.78,9.78,0,0,1,9.75-9.78H562.35a9.78,9.78,0,0,1,9.75,9.78V269H360.25Zm189,445.11H383.1L352.79,329.05H579.56ZM599.8,312.75H332.55V292.81a6.12,6.12,0,0,1,6.12-6.13h255a6.12,6.12,0,0,1,6.13,6.13Z"/><path class="cls-1" d="M501.41,421.64c-8.58-3.45-19.23-1.46-27.8,5.22a77.16,77.16,0,0,0-12.26,12.19A62.4,62.4,0,0,0,446,426.83c-3.62-2.06-9.16-4.7-15.39-3.95-10.43,1.31-16.78,11-18.48,20.11-2.05,11.08.92,23.47,8.35,34.81,6.29,9.61,14.6,17.18,22.65,24.48l24.68,22.41a6.41,6.41,0,0,0,10-1.81h0c3.78-7.4,9-14,14.4-21,5.61-7.14,11.41-14.54,15.75-23,4.26-8.28,9.06-17.67,9.67-28.33C518.35,437.65,511.71,425.75,501.41,421.64ZM496.58,473c-3.81,7.43-9,14-14.44,21-4,5.09-8.05,10.27-11.63,15.91l-18.84-17.11c-7.43-6.75-15.15-13.76-20.53-22-5.64-8.61-7.95-17.67-6.49-25.52.82-4.37,3.72-9.29,7.47-9.75a5.31,5.31,0,0,1,.71,0c1.76,0,4,.75,6.88,2.38a50.55,50.55,0,0,1,16.62,15.28v0A6.39,6.39,0,0,0,467,453h0a64.16,64.16,0,0,1,14.41-16.07c4.92-3.85,10.92-5.22,15.25-3.46,5.87,2.35,8.57,10,8.21,16.37C504.41,457.79,500.43,465.55,496.58,473Z"/><path class="cls-1" d="M410.38,207.7a24.09,24.09,0,0,0,5.7-7.94,35.51,35.51,0,0,0,2.83-9.27,39.7,39.7,0,0,0-1.3-18.86l1,1.19c-7.57-3.33-15-8.22-20.21-15.26a37.55,37.55,0,0,1-5.92-11.66,45,45,0,0,1-2-12.89,34.61,34.61,0,0,1,2.35-13.12,23.32,23.32,0,0,1,3.6-6.08,24.76,24.76,0,0,1,5.25-4.59c3.7-2.46,7.12-4.07,9.38-6.53a20.2,20.2,0,0,0,4.59-9.29c1.48-7.19.72-15.18-1-22.86-.86-3.86-1.92-7.7-3.11-11.52s-2.67-7.55-3.92-11.56A89.66,89.66,0,0,1,403.26,23a43.83,43.83,0,0,1,1.28-12.39A21.58,21.58,0,0,1,410.64,0C405.43,6.48,405,15.06,406,22.85A100.34,100.34,0,0,0,412,46c1.36,3.71,3.08,7.43,4.52,11.35a109.74,109.74,0,0,1,3.74,11.91c2,8.08,3.38,16.68,1.6,25.51a26.48,26.48,0,0,1-6.05,12.35c-3.31,3.59-7.44,5.49-10.5,7.51a16,16,0,0,0-6.58,7.71,30.09,30.09,0,0,0-2,10.75,36.27,36.27,0,0,0,6.08,21.4c4.2,6.35,10.62,11,17.6,14.82l.82.44.2.75A39.49,39.49,0,0,1,421.1,191a37.64,37.64,0,0,1-3.92,9.37A22.71,22.71,0,0,1,410.38,207.7Z"/><path class="cls-1" d="M447.12,199.88c1.26,2.37,3.76,3.69,5.95,3a8,8,0,0,0,4.83-4.48,14.35,14.35,0,0,0,1.11-6.77,26,26,0,0,0-1.34-7,37,37,0,0,0-7.34-12.47c-3.2-3.88-6.95-7.86-9.85-12.78-5.62-10.18-6.23-21.83-4.12-32.48a47.81,47.81,0,0,1,5.77-15.21c2.83-4.59,6.72-8.83,11.66-10.85A29.39,29.39,0,0,0,445,113.1a53.5,53.5,0,0,0-3.6,14.55,58.28,58.28,0,0,0,.26,14.82,37.24,37.24,0,0,0,4.49,13.61c2.3,4.19,5.74,7.91,9,12.21s6.24,9.42,7.39,14.93,1.32,11.53-1.9,16.75a10.18,10.18,0,0,1-7.3,4.64,5.85,5.85,0,0,1-4.15-1.26A7.06,7.06,0,0,1,447.12,199.88Z"/><path class="cls-1" d="M951.28,444.79h-3.22v-9.08a15.89,15.89,0,0,0-15.87-15.89H815a15.91,15.91,0,0,0-15.87,15.89v9.08h-3.21a13.69,13.69,0,0,0-13.67,13.66v22.09h12.31L813.79,716.9H933.36l19.27-236.36h12.31V458.45A13.68,13.68,0,0,0,951.28,444.79ZM809,435.71a6,6,0,0,1,5.94-6H932.19a6,6,0,0,1,5.94,6v8.22H809ZM924.2,707H823L804.48,480.54h138.2ZM955,470.61H792.14V458.45a3.73,3.73,0,0,1,3.74-3.73h155.4a3.73,3.73,0,0,1,3.73,3.73Z"/><path class="cls-1" d="M895.05,537c-5.23-2.11-11.72-.9-16.95,3.17a47.19,47.19,0,0,0-7.46,7.43,38.19,38.19,0,0,0-9.38-7.45c-2.2-1.25-5.58-2.86-9.37-2.4-6.36.79-10.23,6.71-11.27,12.26-1.25,6.75.56,14.3,5.09,21.21,3.83,5.86,8.9,10.47,13.8,14.91l15,13.66a3.91,3.91,0,0,0,6.1-1.1h0c2.3-4.51,5.46-8.54,8.78-12.79s7-8.86,9.59-14,5.52-10.76,5.9-17.26C905.37,546.72,901.32,539.47,895.05,537Zm-2.94,31.32a81.25,81.25,0,0,1-8.8,12.79c-2.42,3.1-4.91,6.26-7.09,9.69l-11.48-10.43c-4.53-4.11-9.24-8.38-12.52-13.4-3.43-5.25-4.84-10.77-4-15.55.5-2.67,2.27-5.67,4.55-5.94a3.1,3.1,0,0,1,.44,0,9,9,0,0,1,4.19,1.45,30.72,30.72,0,0,1,10.13,9.31h0a3.89,3.89,0,0,0,6.51-.13h0a39.23,39.23,0,0,1,8.78-9.79c3-2.34,6.66-3.18,9.3-2.1,3.57,1.43,5.22,6.09,5,10C896.87,559,894.45,563.72,892.11,568.29Z"/><path class="cls-1" d="M839.57,406.58a14.65,14.65,0,0,0,3.48-4.83,22,22,0,0,0,1.73-5.65,24.35,24.35,0,0,0-.8-11.5l.62.73a30.3,30.3,0,0,1-12.32-9.3,23.06,23.06,0,0,1-3.61-7.11,27.77,27.77,0,0,1-1.21-7.85,21.26,21.26,0,0,1,1.43-8,14.2,14.2,0,0,1,2.2-3.71,14.93,14.93,0,0,1,3.2-2.8c2.25-1.5,4.34-2.48,5.72-4a12.23,12.23,0,0,0,2.79-5.66c.91-4.38.44-9.25-.59-13.93-.53-2.35-1.18-4.69-1.9-7s-1.63-4.6-2.39-7a55.06,55.06,0,0,1-2.69-14.89,26.76,26.76,0,0,1,.79-7.56,13.16,13.16,0,0,1,3.71-6.48c-3.17,3.95-3.43,9.18-2.86,13.93A61.72,61.72,0,0,0,840.55,308c.83,2.26,1.88,4.53,2.76,6.91a67.18,67.18,0,0,1,2.28,7.26c1.21,4.93,2.06,10.16,1,15.55a16,16,0,0,1-3.68,7.52c-2,2.19-4.54,3.35-6.4,4.58a9.69,9.69,0,0,0-4,4.7,18.21,18.21,0,0,0-1.25,6.55,22.12,22.12,0,0,0,3.71,13c2.56,3.87,6.47,6.73,10.73,9l.49.27.13.46a24,24,0,0,1-.17,12.49,22.85,22.85,0,0,1-2.39,5.72A13.78,13.78,0,0,1,839.57,406.58Z"/><path class="cls-1" d="M862,401.82a3.17,3.17,0,0,0,3.63,1.8,4.89,4.89,0,0,0,2.95-2.72,9,9,0,0,0,.67-4.13,15.74,15.74,0,0,0-.82-4.28,22.45,22.45,0,0,0-4.47-7.6,59.49,59.49,0,0,1-6-7.78c-3.43-6.2-3.8-13.31-2.52-19.79a29.59,29.59,0,0,1,3.52-9.28,16,16,0,0,1,7.11-6.61,17.88,17.88,0,0,0-5.37,7.5,32.48,32.48,0,0,0-2.19,8.87,35.4,35.4,0,0,0,.15,9,22.9,22.9,0,0,0,2.74,8.3c1.4,2.55,3.5,4.82,5.5,7.44a23.3,23.3,0,0,1,4.51,9.1c.75,3.34.8,7-1.16,10.21a6.18,6.18,0,0,1-4.45,2.82,3.54,3.54,0,0,1-2.53-.77A4.34,4.34,0,0,1,862,401.82Z"/><path class="cls-1" d="M13.67,444.79h3.21v-9.08a15.89,15.89,0,0,1,15.87-15.89H150a15.91,15.91,0,0,1,15.87,15.89v9.08h3.22a13.68,13.68,0,0,1,13.66,13.66v22.09H170.42L151.15,716.9H31.58L12.31,480.54H0V458.45A13.69,13.69,0,0,1,13.67,444.79Zm142.25-9.08a6,6,0,0,0-5.94-6H32.75a6,6,0,0,0-5.94,6v8.22H155.92ZM40.74,707H142l18.48-226.42H22.27ZM9.93,470.61H172.8V458.45a3.73,3.73,0,0,0-3.73-3.73H13.67a3.73,3.73,0,0,0-3.74,3.73Z"/><path class="cls-1" d="M69.89,537c5.23-2.11,11.72-.9,17,3.17a47.19,47.19,0,0,1,7.46,7.43,38.37,38.37,0,0,1,9.38-7.45c2.2-1.25,5.58-2.86,9.37-2.4,6.36.79,10.23,6.71,11.27,12.26,1.25,6.75-.56,14.3-5.09,21.21-3.83,5.86-8.9,10.47-13.8,14.91l-15,13.66a3.91,3.91,0,0,1-6.1-1.1h0c-2.3-4.51-5.46-8.54-8.77-12.79s-7-8.86-9.6-14S60.4,561.08,60,554.58C59.57,546.72,63.62,539.47,69.89,537Zm2.94,31.32c2.33,4.53,5.47,8.54,8.8,12.79,2.43,3.1,4.91,6.26,7.09,9.69l11.48-10.43c4.53-4.11,9.24-8.38,12.52-13.4,3.43-5.25,4.84-10.77,4-15.55-.5-2.67-2.26-5.67-4.55-5.94a3.1,3.1,0,0,0-.44,0,9,9,0,0,0-4.19,1.45,30.81,30.81,0,0,0-10.13,9.31h0a3.89,3.89,0,0,1-6.51-.13h0a39.23,39.23,0,0,0-8.78-9.79c-3-2.34-6.65-3.18-9.3-2.1-3.57,1.43-5.22,6.09-5,10C68.07,559,70.49,563.72,72.83,568.29Z"/><path class="cls-1" d="M125.37,406.58a14.65,14.65,0,0,1-3.48-4.83,21.59,21.59,0,0,1-1.72-5.65,24.22,24.22,0,0,1,.79-11.5l-.62.73a30.3,30.3,0,0,0,12.32-9.3,22.85,22.85,0,0,0,3.61-7.11,27.77,27.77,0,0,0,1.21-7.85,21.26,21.26,0,0,0-1.43-8,14.2,14.2,0,0,0-2.2-3.71,14.93,14.93,0,0,0-3.2-2.8c-2.25-1.5-4.34-2.48-5.72-4a12.33,12.33,0,0,1-2.79-5.66c-.91-4.38-.44-9.25.59-13.93.53-2.35,1.18-4.69,1.9-7s1.63-4.6,2.39-7a55.06,55.06,0,0,0,2.69-14.89,26.76,26.76,0,0,0-.79-7.56,13.16,13.16,0,0,0-3.71-6.48c3.17,3.95,3.44,9.18,2.86,13.93A61.72,61.72,0,0,1,124.39,308c-.83,2.26-1.88,4.53-2.76,6.91a67.18,67.18,0,0,0-2.28,7.26c-1.21,4.93-2.06,10.16-1,15.55a16.15,16.15,0,0,0,3.69,7.52c2,2.19,4.53,3.35,6.39,4.58a9.69,9.69,0,0,1,4,4.7,18.21,18.21,0,0,1,1.25,6.55,22.12,22.12,0,0,1-3.71,13c-2.56,3.87-6.47,6.73-10.73,9l-.49.27-.13.46a24,24,0,0,0,.18,12.49,22.46,22.46,0,0,0,2.38,5.72A13.78,13.78,0,0,0,125.37,406.58Z"/><path class="cls-1" d="M103,401.82a3.17,3.17,0,0,1-3.63,1.8,4.89,4.89,0,0,1-2.95-2.72,9,9,0,0,1-.67-4.13,15.74,15.74,0,0,1,.82-4.28,22.61,22.61,0,0,1,4.47-7.6,59.49,59.49,0,0,0,6-7.78c3.43-6.2,3.8-13.31,2.52-19.79A29.34,29.34,0,0,0,106,348a16,16,0,0,0-7.11-6.61,17.88,17.88,0,0,1,5.37,7.5,32.48,32.48,0,0,1,2.19,8.87,35.4,35.4,0,0,1-.15,9,22.9,22.9,0,0,1-2.74,8.3c-1.4,2.55-3.5,4.82-5.5,7.44a23.44,23.44,0,0,0-4.51,9.1c-.74,3.34-.8,7,1.16,10.21a6.18,6.18,0,0,0,4.45,2.82,3.54,3.54,0,0,0,2.53-.77A4.34,4.34,0,0,0,103,401.82Z"/></g></g></svg>